<?xml version="1.0" encoding="iso-8859-1"?>
<!-- Generator: Adobe Illustrator 19.0.0, SVG Export Plug-In . SVG Version: 6.00 Build 0)  -->
<svg version="1.1" id="Layer_1" xmlns="http://www.w3.org/2000/svg" xmlns:xlink="http://www.w3.org/1999/xlink" x="0px" y="0px"
	 viewBox="0 0 243.03 243.03" style="enable-background:new 0 0 243.03 243.03;" xml:space="preserve">
<g>
	<g>
		<path d="M218.361,124.265l24.669-9.472l-4.396-24.931l-25.67-0.445c-3.681-10.484-9.111-20.144-15.942-28.628l12.331-22.249
			l-19.392-16.273l-19.37,15.686c-9.51-5.599-20.06-9.611-31.291-11.701L134.543,1.77h-25.317l-4.731,24.35
			C93.262,28.109,82.7,32.033,73.16,37.536l-19.563-15.84L34.203,37.965l12.3,22.187c-6.878,8.401-12.373,17.972-16.14,28.379
			L4.398,88.982L0,113.913l24.647,9.459c0.207,10.89,2.187,21.343,5.701,31.071L9.964,172.162l12.658,21.923l25.855-8.906
			c6.748,7.735,14.692,14.39,23.56,19.67l-4.347,27.449l23.785,8.659l14.309-23.816c5.119,0.835,10.372,1.292,15.73,1.292
			c4.986,0,9.884-0.379,14.668-1.107l14.379,23.933l23.792-8.657l-4.314-27.211c8.963-5.194,17.016-11.774,23.86-19.46l25.91,8.923
			l12.662-21.925l-20.155-17.514C215.958,145.679,218.055,135.197,218.361,124.265z M175.75,86.906l-20.503,19.176l18.47,61.707
			l-10.345,10.345c-1.137,1.133-2.971,1.133-4.102-0.002l-27.548-50.044l-21.255,19.597c-1.7,1.7-3.58,3.018-5.493,3.959
			l5.462,21.109l-6.45,6.452c-0.855,0.855-2.242,0.853-3.099-0.002l-11.58-22.829l-2.068-2.068l-22.826-11.58
			c-0.857-0.857-0.857-2.242,0-3.097l6.45-6.452l20.743,5.37c0.946-1.975,2.299-3.919,4.052-5.672l19.518-21.175L65.483,84.346
			c-1.135-1.133-1.137-2.971,0-4.105l10.341-10.345l61.295,18.345l19.315-20.651c5.645-5.641,14.544-5.892,19.879-0.56
			C181.641,72.364,181.391,81.262,175.75,86.906z"/>
	</g>
</g>
<g>
</g>
<g>
</g>
<g>
</g>
<g>
</g>
<g>
</g>
<g>
</g>
<g>
</g>
<g>
</g>
<g>
</g>
<g>
</g>
<g>
</g>
<g>
</g>
<g>
</g>
<g>
</g>
<g>
</g>
</svg>
