<?xml version="1.0" encoding="iso-8859-1"?>
<!-- Generator: Adobe Illustrator 19.0.0, SVG Export Plug-In . SVG Version: 6.00 Build 0)  -->
<svg version="1.1" id="Layer_1" xmlns="http://www.w3.org/2000/svg" xmlns:xlink="http://www.w3.org/1999/xlink" x="0px" y="0px"
	 viewBox="0 0 250.463 250.463" style="enable-background:new 0 0 250.463 250.463;" xml:space="preserve">
<g>
	<g>
		<path d="M152.757,163.49l-1.545-8.22c18.883-9.576,32.213-32.636,32.213-59.617c0-1.025-0.073-2.032-0.123-3.044
			c9.155-4.248,14.765-7.936,15.309-8.299c1.841-1.226,2.947-3.291,2.947-5.504c0-2.213-1.107-4.276-2.947-5.504
			c-0.253-0.17-1.603-1.056-3.886-2.381c5.784-6.128,9.038-13.244,9.038-21.047l0.068-6.611h-6.613
			c-3.686-0.348-16.178-10.074-24.444-16.511C155.882,13.601,138.413,0,125.233,0c-13.601,0-31.207,13.775-48.234,27.096
			c-8.518,6.662-20.183,15.79-23.686,16.165H46.7v6.613c0,7.803,3.254,14.921,9.038,21.05c-2.284,1.325-3.633,2.211-3.886,2.381
			c-1.841,1.226-2.945,3.291-2.945,5.504c0,2.213,1.104,4.276,2.945,5.504c0.547,0.364,6.155,4.049,15.309,8.297
			c-0.048,1.014-0.123,2.021-0.123,3.046c0,26.982,13.33,50.042,32.213,59.617l-1.545,8.22
			c-13.433,18.032-67.375,18.014-67.375,86.969h80.008l11.427-36.218l-14.979-14.979l18.446-18.446l18.444,18.446l-14.977,14.98
			l11.427,36.218h80.006C220.13,181.504,166.19,181.521,152.757,163.49z M60.716,54.556c6.093-2.828,13.744-8.685,24.431-17.044
			c13.101-10.248,31.042-24.286,40.084-24.286c8.641,0,26.428,13.85,39.419,23.964c10.998,8.562,18.85,14.542,25.086,17.395
			c-1.223,3.556-3.829,6.9-7.521,9.926c-12.139-5.522-30.057-11.789-50.524-12.922l23.395-17.126h-20.373l-9.71,5.544l-10.019-5.544
			H95.379l23.395,17.126c-20.468,1.133-38.383,7.398-50.522,12.922C64.549,61.476,61.935,58.123,60.716,54.556z M125.233,92.989
			c-23.525,0-44.436-8.359-56.15-14.183c11.716-5.826,32.627-14.183,56.15-14.183c23.525,0,44.434,8.359,56.15,14.183
			C169.664,84.633,148.753,92.989,125.233,92.989z"/>
	</g>
</g>
<g>
</g>
<g>
</g>
<g>
</g>
<g>
</g>
<g>
</g>
<g>
</g>
<g>
</g>
<g>
</g>
<g>
</g>
<g>
</g>
<g>
</g>
<g>
</g>
<g>
</g>
<g>
</g>
<g>
</g>
</svg>
