<?xml version="1.0" encoding="iso-8859-1"?>
<!-- Generator: Adobe Illustrator 19.0.0, SVG Export Plug-In . SVG Version: 6.00 Build 0)  -->
<svg version="1.1" id="Layer_1" xmlns="http://www.w3.org/2000/svg" xmlns:xlink="http://www.w3.org/1999/xlink" x="0px" y="0px"
	 viewBox="0 0 248.35 248.35" style="enable-background:new 0 0 248.35 248.35;" xml:space="preserve">
<g>
	<g>
		<path d="M186.057,66.136h-15.314V19.839C170.743,8.901,161.844,0,150.904,0H97.448c-10.938,0-19.84,8.901-19.84,19.839v46.296
			H62.295c-9.567,0-17.324,7.757-17.324,17.324V214.26c0,9.571,7.759,17.326,17.324,17.326h2.323v12.576
			c0,2.315,1.876,4.188,4.186,4.188h19.811c2.315,0,4.188-1.876,4.188-4.188v-12.576h62.741v12.576c0,2.315,1.878,4.188,4.188,4.188
			h19.809c2.317,0,4.188-1.876,4.188-4.188v-12.576h2.326c9.567,0,17.324-7.757,17.324-17.326V83.46
			C203.381,73.891,195.624,66.136,186.057,66.136z M157.514,66.135H90.832V19.839c0-3.646,2.967-6.613,6.613-6.613h53.456
			c3.646,0,6.613,2.967,6.613,6.613V66.135z"/>
	</g>
</g>
<g>
</g>
<g>
</g>
<g>
</g>
<g>
</g>
<g>
</g>
<g>
</g>
<g>
</g>
<g>
</g>
<g>
</g>
<g>
</g>
<g>
</g>
<g>
</g>
<g>
</g>
<g>
</g>
<g>
</g>
</svg>
