<?xml version="1.0" encoding="iso-8859-1"?>
<!-- Generator: Adobe Illustrator 19.0.0, SVG Export Plug-In . SVG Version: 6.00 Build 0)  -->
<svg version="1.1" id="Layer_1" xmlns="http://www.w3.org/2000/svg" xmlns:xlink="http://www.w3.org/1999/xlink" x="0px" y="0px"
	 viewBox="0 0 255.368 255.368" style="enable-background:new 0 0 255.368 255.368;" xml:space="preserve">
<g>
	<g>
		<path d="M148.91,171.073l-2.526-13.478c3.703-1.999,7.133-4.592,10.272-7.649c24.502-3.326,52.493-8.551,52.493-8.551
			c-20.454-9.64-26.144-26.166-28.359-43.834c7.945-0.921,14.13-7.68,14.13-15.865c0-2.535-0.608-4.927-1.664-7.058
			c8.262-6.882,12.962-15.329,12.962-24.762c0-3.653-2.892-6.611-6.545-6.611c-3.686-0.348-16.176-10.074-24.442-16.509
			C158.336,13.601,140.866,0,127.684,0C114.083,0,96.477,13.775,79.45,27.096c-8.518,6.662-20.183,15.79-23.686,16.165
			c-3.653,0-6.613,2.96-6.613,6.613c0,9.433,4.702,17.882,12.964,24.764c-1.056,2.132-1.664,4.523-1.664,7.058
			c0,8.185,6.188,14.943,14.13,15.865c-2.215,17.668-7.903,34.194-28.361,43.834c0,0,27.991,5.224,52.502,8.551
			c3.267,3.19,6.86,5.883,10.744,7.918l-2.315,12.327c-13.156,17.659-72.467,17.644-72.467,85.177h78.004l11.128-30.5l-14.58-14.58
			l18.448-18.448l18.446,18.446l-14.578,14.58l11.13,30.5h78.002C220.682,188.966,163.351,187.872,148.91,171.073z M63.169,54.556
			c6.093-2.828,13.744-8.685,24.431-17.044c13.101-10.248,31.042-24.286,40.084-24.286c8.639,0,26.43,13.85,39.419,23.964
			c10.998,8.562,18.85,14.54,25.086,17.393c-1.446,4.206-4.832,8.114-9.671,11.551c-1.153-0.267-2.348-0.419-3.582-0.419h-46.023
			l24.627-18.027h-20.373l-9.712,5.544l-10.019-5.544H97.83l24.625,18.027H76.432c-1.234,0-2.431,0.154-3.584,0.419
			C68.001,62.69,64.61,58.775,63.169,54.556z M76.432,84.451c-1.519,0.001-2.755-1.236-2.755-2.755s1.237-2.755,2.755-2.755h102.503
			c1.519,0,2.755,1.237,2.755,2.755c0,1.519-1.237,2.755-2.755,2.755H76.432z"/>
	</g>
</g>
<g>
</g>
<g>
</g>
<g>
</g>
<g>
</g>
<g>
</g>
<g>
</g>
<g>
</g>
<g>
</g>
<g>
</g>
<g>
</g>
<g>
</g>
<g>
</g>
<g>
</g>
<g>
</g>
<g>
</g>
</svg>
