<?xml version="1.0" encoding="iso-8859-1"?>
<!-- Generator: Adobe Illustrator 19.0.0, SVG Export Plug-In . SVG Version: 6.00 Build 0)  -->
<svg version="1.1" id="Layer_1" xmlns="http://www.w3.org/2000/svg" xmlns:xlink="http://www.w3.org/1999/xlink" x="0px" y="0px"
	 viewBox="0 0 252.701 252.701" style="enable-background:new 0 0 252.701 252.701;" xml:space="preserve">
<g>
	<g>
		<path d="M127.152,0.044V0c-0.271,0-0.533,0.018-0.8,0.018c-0.267,0-0.531-0.018-0.802-0.018v0.044
			C71.256,0.906,27.506,45.157,27.506,99.651c0,73.437,86.222,143.148,98.846,153.05c12.624-9.902,98.844-79.611,98.844-153.05
			C225.193,45.157,181.449,0.906,127.152,0.044z M179.2,70.756l-20.141,18.845l18.146,60.629l-10.164,10.164
			c-1.115,1.111-2.919,1.111-4.034,0l-27.063-49.171l-24.883,24.541l3.97,19.343l-6.34,6.333c-0.838,0.844-2.202,0.844-3.042,0.004
			l-35.843-35.843c-0.842-0.84-0.842-2.2,0-3.044l6.338-6.338l18.986,3.875l24.555-24.98L70.857,68.243
			c-1.115-1.115-1.115-2.919-0.004-4.038L81.021,54.04l60.221,18.032l18.982-20.291c5.546-5.546,14.284-5.795,19.524-0.551
			C184.99,56.467,184.745,65.212,179.2,70.756z"/>
	</g>
</g>
<g>
</g>
<g>
</g>
<g>
</g>
<g>
</g>
<g>
</g>
<g>
</g>
<g>
</g>
<g>
</g>
<g>
</g>
<g>
</g>
<g>
</g>
<g>
</g>
<g>
</g>
<g>
</g>
<g>
</g>
</svg>
