<?xml version="1.0" encoding="iso-8859-1"?>
<!-- Generator: Adobe Illustrator 19.0.0, SVG Export Plug-In . SVG Version: 6.00 Build 0)  -->
<svg version="1.1" id="Layer_1" xmlns="http://www.w3.org/2000/svg" xmlns:xlink="http://www.w3.org/1999/xlink" x="0px" y="0px"
	 viewBox="0 0 203 203" style="enable-background:new 0 0 203 203;" xml:space="preserve">
<g>
	<g>
		<path d="M183.887,44.766H19.114C8.56,44.766,0,52.246,0,61.471v80.054c0,9.228,8.56,16.709,19.114,16.709h164.77
			c10.557,0,19.116-7.484,19.116-16.709V61.471C203.001,52.244,194.444,44.766,183.887,44.766z M65.388,141.34H52.162v-11.383
			h13.226V141.34z M65.388,118.573H52.162v-11.381h13.226V118.573z M65.388,95.809H52.162V84.425h13.226V95.809z M65.388,73.042
			H52.162V61.661h13.226V73.042z M162.562,86.744l-10.173,9.518l9.166,30.632l-5.136,5.136c-0.56,0.56-1.473,0.56-2.037,0
			l-13.674-24.843l-12.572,12.4l2.006,9.77l-3.203,3.203c-0.421,0.425-1.111,0.425-1.536,0l-18.109-18.109
			c-0.425-0.425-0.425-1.111,0-1.536l3.203-3.203l9.593,1.96l12.404-12.624l-24.669-13.575c-0.56-0.564-0.56-1.477,0-2.041
			l5.136-5.132l30.427,9.106l9.593-10.25c2.8-2.802,7.215-2.927,9.865-0.276C165.485,79.523,165.363,83.94,162.562,86.744z"/>
	</g>
</g>
<g>
</g>
<g>
</g>
<g>
</g>
<g>
</g>
<g>
</g>
<g>
</g>
<g>
</g>
<g>
</g>
<g>
</g>
<g>
</g>
<g>
</g>
<g>
</g>
<g>
</g>
<g>
</g>
<g>
</g>
</svg>
