<?xml version="1.0" encoding="iso-8859-1"?>
<!-- Generator: Adobe Illustrator 19.0.0, SVG Export Plug-In . SVG Version: 6.00 Build 0)  -->
<svg version="1.1" id="Layer_1" xmlns="http://www.w3.org/2000/svg" xmlns:xlink="http://www.w3.org/1999/xlink" x="0px" y="0px"
	 viewBox="0 0 208.223 208.223" style="enable-background:new 0 0 208.223 208.223;" xml:space="preserve">
<g>
	<g>
		<path d="M181.571,97.498h0.003h26.649c-3.278-52.354-45.146-94.219-97.497-97.497v26.646H97.499V0.001
			C45.146,3.277,3.276,45.144,0,97.498h26.646v13.226H0c3.278,52.352,45.146,94.222,97.497,97.497v-26.646h13.226v26.646
			c52.352-3.278,94.219-45.146,97.497-97.497h-26.649V97.498z M92.456,93.357l0.419-0.231l-0.644,0.641L92.456,93.357z
			 M63.792,145.329l25.394-46.043l20.556,20.701L63.792,145.329z M119.094,110.633L98.582,89.98l45.844-25.284L119.094,110.633z"/>
	</g>
</g>
<g>
</g>
<g>
</g>
<g>
</g>
<g>
</g>
<g>
</g>
<g>
</g>
<g>
</g>
<g>
</g>
<g>
</g>
<g>
</g>
<g>
</g>
<g>
</g>
<g>
</g>
<g>
</g>
<g>
</g>
</svg>
