<?xml version="1.0" encoding="iso-8859-1"?>
<!-- Generator: Adobe Illustrator 19.0.0, SVG Export Plug-In . SVG Version: 6.00 Build 0)  -->
<svg version="1.1" id="Layer_1" xmlns="http://www.w3.org/2000/svg" xmlns:xlink="http://www.w3.org/1999/xlink" x="0px" y="0px"
	 viewBox="0 0 235.132 235.132" style="enable-background:new 0 0 235.132 235.132;" xml:space="preserve">
<g>
	<g>
		<path d="M206.475,40.525h-43.206c-0.882-14.853-13.211-26.677-28.282-26.677h-33.471c-15.071,0-27.4,11.822-28.282,26.677H28.657
			C12.829,40.525,0,53.355,0,69.182v123.445c0,15.827,12.829,28.657,28.657,28.657h177.818c15.827,0,28.657-12.829,28.657-28.657
			V69.182C235.132,53.355,222.302,40.525,206.475,40.525z M101.516,27.074h33.473c7.777,0,14.196,5.894,15.04,13.451H86.473
			C87.32,32.971,93.739,27.074,101.516,27.074z M71.572,176.183v-53.139H58.345v53.139h-19.82l3.379-76.897H88.67l3.379,76.897
			H71.572z M193.021,120.392v38.7H174.62h-18.607H137.61v-38.7h-11.87V92.776l11.707,0.013l15.439,0.004c0,0.007,0,0.011,0,0.018
			c0,6.862,5.566,12.428,12.43,12.428s12.426-5.566,12.426-12.428c0-0.004,0-0.009,0-0.018l17.053-0.007l10.096-0.011v27.617
			H193.021z"/>
	</g>
</g>
<g>
</g>
<g>
</g>
<g>
</g>
<g>
</g>
<g>
</g>
<g>
</g>
<g>
</g>
<g>
</g>
<g>
</g>
<g>
</g>
<g>
</g>
<g>
</g>
<g>
</g>
<g>
</g>
<g>
</g>
</svg>
