<?xml version="1.0" encoding="iso-8859-1"?>
<!-- Generator: Adobe Illustrator 19.0.0, SVG Export Plug-In . SVG Version: 6.00 Build 0)  -->
<svg version="1.1" id="Layer_1" xmlns="http://www.w3.org/2000/svg" xmlns:xlink="http://www.w3.org/1999/xlink" x="0px" y="0px"
	 viewBox="0 0 246.35 246.35" style="enable-background:new 0 0 246.35 246.35;" xml:space="preserve">
<g>
	<g>
		<g>
			<path d="M59.302,148.866h125.167c11.139,0,20.17-9.031,20.17-20.17v-86.89c0-11.143-9.034-20.172-20.17-20.172h-28.41
				C155.9,9.679,146.139,0,134.147,0h-23.558C98.597,0,88.836,9.679,88.678,21.634H59.302c-11.139,0-20.168,9.031-20.168,20.172
				v86.89C39.134,139.837,48.163,148.866,59.302,148.866z M110.589,13.224h23.56c4.698,0,8.513,3.747,8.672,8.407h-40.904
				C102.076,16.971,105.889,13.224,110.589,13.224z"/>
			<circle cx="30.222" cy="207.224" r="17.635"/>
			<circle cx="93.047" cy="207.224" r="17.635"/>
			<circle cx="155.869" cy="207.224" r="17.635"/>
			<circle cx="218.694" cy="207.224" r="17.635"/>
			<rect x="4.14" y="167.729" width="238.07" height="13.226"/>
			<rect x="4.14" y="233.124" width="238.07" height="13.226"/>
		</g>
	</g>
</g>
<g>
</g>
<g>
</g>
<g>
</g>
<g>
</g>
<g>
</g>
<g>
</g>
<g>
</g>
<g>
</g>
<g>
</g>
<g>
</g>
<g>
</g>
<g>
</g>
<g>
</g>
<g>
</g>
<g>
</g>
</svg>
