<?xml version="1.0" encoding="iso-8859-1"?>
<!-- Generator: Adobe Illustrator 19.0.0, SVG Export Plug-In . SVG Version: 6.00 Build 0)  -->
<svg version="1.1" id="Layer_1" xmlns="http://www.w3.org/2000/svg" xmlns:xlink="http://www.w3.org/1999/xlink" x="0px" y="0px"
	 viewBox="0 0 209.047 209.047" style="enable-background:new 0 0 209.047 209.047;" xml:space="preserve">
<g>
	<g>
		<g>
			<path d="M168.082,0H41.33C29.175,0,19.286,9.889,19.286,22.028l-0.365,164.975c0,12.155,9.889,22.044,22.044,22.044h126.751
				c12.155,0,22.044-9.889,22.044-22.028l0.366-164.976C190.126,9.886,180.234,0,168.082,0z M112.972,181.307H70.538v-13.226h42.434
				V181.307z M112.972,161.468H70.538v-13.226h42.434V161.468z M92.031,133.854c-29.6,0-53.681-24.081-53.681-53.679
				c0-29.6,24.081-53.681,53.681-53.681c0.15,0,0.3,0.009,0.45,0.011c0.071,0,0.139-0.011,0.212-0.011
				c0.198,0,0.39,0.024,0.586,0.031c29.025,0.668,52.433,24.468,52.433,53.648C145.71,109.773,121.629,133.854,92.031,133.854z
				 M176.531,187.003c0,4.863-3.955,8.818-8.818,8.818h-5.145V13.226h5.511c4.863,0,8.818,3.955,8.818,8.802L176.531,187.003z"/>
			<path d="M92.69,120.563c2.654-0.769,9.051-12.038,10.173-33.778H82.517C83.639,108.525,90.038,119.796,92.69,120.563z"/>
			<path d="M52.167,86.788c2.2,13.288,10.874,24.387,22.687,29.957c-3.229-8.458-5.052-19.158-5.581-29.957H52.167z"/>
			<path d="M92.716,39.755c-0.051,0-0.099-0.007-0.152-0.007c-2.553,0.785-8.939,12.058-10.052,33.813h20.353
				C101.757,51.846,95.384,40.578,92.716,39.755z"/>
			<path d="M74.826,43.615c-11.8,5.575-20.463,16.667-22.661,29.946h17.101C69.791,62.771,71.607,52.076,74.826,43.615z"/>
			<path d="M110.812,115.97c10.995-5.793,18.982-16.5,21.08-29.184h-15.781C115.6,97.263,113.863,107.637,110.812,115.97z"/>
			<path d="M110.834,44.387c3.044,8.337,4.772,18.706,5.282,29.173h15.779C129.796,60.884,121.821,50.184,110.834,44.387z"/>
		</g>
	</g>
</g>
<g>
</g>
<g>
</g>
<g>
</g>
<g>
</g>
<g>
</g>
<g>
</g>
<g>
</g>
<g>
</g>
<g>
</g>
<g>
</g>
<g>
</g>
<g>
</g>
<g>
</g>
<g>
</g>
<g>
</g>
</svg>
