<?xml version="1.0" encoding="iso-8859-1"?>
<!-- Generator: Adobe Illustrator 19.0.0, SVG Export Plug-In . SVG Version: 6.00 Build 0)  -->
<svg version="1.1" id="Layer_1" xmlns="http://www.w3.org/2000/svg" xmlns:xlink="http://www.w3.org/1999/xlink" x="0px" y="0px"
	 viewBox="0 0 276.12 276.12" style="enable-background:new 0 0 276.12 276.12;" xml:space="preserve">
<g>
	<g>
		<g>
			<path d="M202.67,13.145H73.353c-12.155,0-22.044,9.889-22.044,22.044v227.787h13.226V78.358h146.952v184.616h13.226V35.187
				C224.714,23.033,214.825,13.145,202.67,13.145z M95.169,53.562H79.003V40.335h16.166V53.562z M122.356,53.562h-16.167V40.335
				h16.167V53.562z"/>
			<path d="M153.072,140.997h-9.567c9.102-2.425,15.819-10.702,15.819-20.571c0-11.771-9.541-21.312-21.31-21.312
				c-11.771,0-21.312,9.541-21.312,21.312c0,9.869,6.715,18.146,15.821,20.571h-9.571c-8.522,0-15.431,6.911-15.431,15.431v47.764
				h13.134v56.026h34.717v-56.026h13.131v-47.764C168.502,147.908,161.596,140.997,153.072,140.997z"/>
			
				<rect x="239.59" y="170.672" transform="matrix(-0.8191 -0.5736 0.5736 -0.8191 364.4735 469.4957)" width="33.337" height="13.224"/>
			<rect x="242.783" y="134.648" width="33.337" height="13.226"/>
			
				<rect x="249.544" y="88.782" transform="matrix(0.5736 0.8192 -0.8192 0.5736 195.6169 -164.8652)" width="13.228" height="33.343"/>
			
				<rect x="13.25" y="160.616" transform="matrix(-0.5736 -0.8191 0.8191 -0.5736 -113.9637 295.2463)" width="13.224" height="33.337"/>
			<rect y="134.648" width="33.339" height="13.226"/>
			
				<rect x="3.296" y="98.841" transform="matrix(-0.8191 -0.5736 0.5736 -0.8191 -24.1726 203.2844)" width="33.337" height="13.226"/>
		</g>
	</g>
</g>
<g>
</g>
<g>
</g>
<g>
</g>
<g>
</g>
<g>
</g>
<g>
</g>
<g>
</g>
<g>
</g>
<g>
</g>
<g>
</g>
<g>
</g>
<g>
</g>
<g>
</g>
<g>
</g>
<g>
</g>
</svg>
