<?xml version="1.0" encoding="iso-8859-1"?>
<!-- Generator: Adobe Illustrator 19.0.0, SVG Export Plug-In . SVG Version: 6.00 Build 0)  -->
<svg version="1.1" id="Layer_1" xmlns="http://www.w3.org/2000/svg" xmlns:xlink="http://www.w3.org/1999/xlink" x="0px" y="0px"
	 viewBox="0 0 241.016 241.016" style="enable-background:new 0 0 241.016 241.016;" xml:space="preserve">
<g>
	<g>
		<path d="M142.32,79.038l1.631-48.842c0-13.892-10.652-25.152-23.779-25.152c-13.131,0-23.779,11.258-23.779,25.152l1.644,49.202
			L0,132.262v25.476c0,2.791,2.259,5.052,5.055,5.052l94.843-27.506l2.037,50.097c0.004,4.312,0.732,8.372,1.997,11.97
			l-32.14,18.927l-0.004,15.883c0.004,2.105,1.708,3.811,3.814,3.811l42.361-13.848h5.09v-0.001l42.361,13.846
			c2.105,0.002,3.814-1.704,3.814-3.809l0.004-15.885l-32.713-19.257c1.197-3.514,1.885-7.455,1.885-11.637l2.046-50.288
			l95.516,27.698c2.795,0,5.05-2.259,5.05-5.052v-25.474L142.32,79.038z"/>
	</g>
</g>
<g>
</g>
<g>
</g>
<g>
</g>
<g>
</g>
<g>
</g>
<g>
</g>
<g>
</g>
<g>
</g>
<g>
</g>
<g>
</g>
<g>
</g>
<g>
</g>
<g>
</g>
<g>
</g>
<g>
</g>
</svg>
