<?xml version="1.0" encoding="iso-8859-1"?>
<!-- Generator: Adobe Illustrator 19.0.0, SVG Export Plug-In . SVG Version: 6.00 Build 0)  -->
<svg version="1.1" id="Layer_1" xmlns="http://www.w3.org/2000/svg" xmlns:xlink="http://www.w3.org/1999/xlink" x="0px" y="0px"
	 viewBox="0 0 235.137 235.137" style="enable-background:new 0 0 235.137 235.137;" xml:space="preserve">
<g>
	<g>
		<path d="M206.477,40.527h-43.206c-0.882-14.853-13.213-26.677-28.282-26.677h-33.476c-15.071,0-27.4,11.822-28.282,26.677H28.657
			C12.829,40.527,0,53.357,0,69.185v123.445c0,15.827,12.829,28.657,28.657,28.657H206.48c15.827,0,28.657-12.829,28.657-28.657
			V69.185C235.134,53.357,222.305,40.527,206.477,40.527z M101.514,27.076h33.478c7.775,0,14.194,5.897,15.038,13.451H86.473
			C87.318,32.974,93.737,27.076,101.514,27.076z M171.152,96.284l-20.141,18.845l18.146,60.629l-10.169,10.164
			c-1.111,1.115-2.919,1.115-4.034,0l-27.059-49.171l-24.887,24.544l3.97,19.339l-6.34,6.333c-0.838,0.844-2.202,0.844-3.042,0.004
			l-35.843-35.843c-0.842-0.84-0.842-2.2,0-3.04l6.338-6.342l18.986,3.875l24.555-24.98L62.805,93.769
			c-1.115-1.113-1.115-2.919-0.004-4.036L72.97,79.568l60.226,18.03l18.982-20.291c5.542-5.546,14.284-5.793,19.524-0.549
			C176.939,81.993,176.698,90.737,171.152,96.284z"/>
	</g>
</g>
<g>
</g>
<g>
</g>
<g>
</g>
<g>
</g>
<g>
</g>
<g>
</g>
<g>
</g>
<g>
</g>
<g>
</g>
<g>
</g>
<g>
</g>
<g>
</g>
<g>
</g>
<g>
</g>
<g>
</g>
</svg>
